# xmcd
#
# Track frame offsets: 
#        150
#        14630
#        30209
#        43872
#        58155
#        72645
#        87095
#        100147
#        114044
#        127597
#        141545
#        155409
#        168812
#        182505
#        194941
#        207953
#        221621
#        234595
#        246973
#        259486
#        271855
#        286129
#        300791
#        314093
#        328230
#
# Disc length: 4560 seconds
#
# Revision: 0
# Processed by: cddbd v1.5.1PL2 Copyright (c) Steve Scherf et al.
# Submitted via: ExactAudioCopy v0.95a5
#
DISCID=6f11ce19
DTITLE=Various Artist - Old Mountain Stringband Songs and Tunes
DYEAR=1900
DGENRE=Country
TTITLE0=Gid Tanner and His Skillet Lickers - Molly, Put the Kettle On
TTITLE1=Charlie Poole and The North Carolina Ramblers - It's Movin' Day
TTITLE2=Crockett's Kentucky Mountaineers - Little Rabbit and Rabbit, Whe
TTITLE2=re's Your Mammy?
TTITLE3=Seven Foot Dilly and His Dill Pickles - Lye Soap
TTITLE4=Freeny's Barn Dance Band - Sullivan's Hollow
TTITLE5=The Georgia Yellow Hammers - A Picture on the Wall
TTITLE6=The Red Headed Fiddlers - Texas Quickstep
TTITLE7=Kelly Harrell - Charles Guiteau
TTITLE8=The Arkansas Barefoot Boys - Eighth of January
TTITLE9=Uncle Dave Macon and His Fruit Jar Drinkers - Hold That Woodpile
TTITLE9=Down
TTITLE10=The Leake County Revelers - Wednesday Night Waltz
TTITLE11=Fiddlin' John Carson and His Virginia Reelers - Hell Bound for 
TTITLE11=Alabama
TTITLE12=The Floyd County Ramblers - Step Stone
TTITLE13=The Lewis Brothers - Bull at the Wagon
TTITLE14=Ben Jarrell - Yellow Rose of Texas
TTITLE15=The East Texas Serenaders - Combination Rag
TTITLE16=Grayson and Whitter - Never Be as Fast as I Have Been
TTITLE17=The Morrison Twin Brothers String Band - Dry and Dusty
TTITLE18=Carter Brothers and Son - Cotton Eyed Joe
TTITLE19=The Perry County Music Makers - I'm Sad and Blue
TTITLE20=Narmour and Smith - Carroll County Blues
TTITLE21=Burnett and Rutherford - Ladies on the Steamboat
TTITLE22=The Grinnell Giggers - Duck Shoes Rag
TTITLE23=The Binkley Brothers' Dixie Clodhoppers - I'll Rise When the 
TTITLE23=Rooster Crows
TTITLE24=The Corn Cob Crushers - Ragtime Annie
EXTD=
EXTT0=
EXTT1=
EXTT2=
EXTT3=
EXTT4=
EXTT5=
EXTT6=
EXTT7=
EXTT8=
EXTT9=
EXTT10=
EXTT11=
EXTT12=
EXTT13=
EXTT14=
EXTT15=
EXTT16=
EXTT17=
EXTT18=
EXTT19=
EXTT20=
EXTT21=
EXTT22=
EXTT23=
EXTT24=
PLAYORDER=
